<?xml version="1.0" encoding="UTF-8" standalone="no"?>
<!DOCTYPE svg PUBLIC "-//W3C//DTD SVG 1.1//EN" "http://www.w3.org/Graphics/SVG/1.1/DTD/svg11.dtd">
<svg width="100%" height="100%" viewBox="0 0 47 37" version="1.1" xmlns="http://www.w3.org/2000/svg" xmlns:xlink="http://www.w3.org/1999/xlink" xml:space="preserve" xmlns:serif="http://www.serif.com/" style="fill-rule:evenodd;clip-rule:evenodd;stroke-linejoin:round;stroke-miterlimit:2;">
    <g transform="matrix(0.142285,0,0,0.142285,-12.8712,-1.61537)">
        <g transform="matrix(-1.95626,0,0,1.95626,663.836,104.677)">
            <path d="M201.812,80.538L204.338,80.538C244.879,80.538 272.753,57.073 272.753,18.758C272.753,-3.243 263.562,-20.347 248.06,-30.924L201.812,80.538Z" style="fill:rgb(153,204,0);"/>
        </g>
        <g transform="matrix(-1.95626,0,0,1.95626,663.836,104.677)">
            <path d="M144.589,45.303L144.589,80.538L159.208,80.538L144.589,45.303Z" style="fill:rgb(153,204,0);"/>
        </g>
        <g transform="matrix(-1.95626,0,0,1.95626,663.836,104.677)">
            <path d="M208.259,-42.51C208.259,-42.51 207.81,-43.021 204.338,-43.021L148.898,-42.51L178.93,30.695L208.259,-42.51Z" style="fill:rgb(153,204,0);"/>
        </g>
    </g>
</svg>
