<?xml version="1.0" encoding="UTF-8" standalone="no"?>
<!-- Created with Inkscape (http://www.inkscape.org/) -->

<svg
   version="1.1"
   id="svg3965"
   width="704.86182"
   height="721.25195"
   viewBox="0 0 704.86182 721.25195"
   xmlns="http://www.w3.org/2000/svg"
   xmlns:svg="http://www.w3.org/2000/svg">
  <defs
     id="defs3969">
    <clipPath
       clipPathUnits="userSpaceOnUse"
       id="clipPath3981">
      <path
         d="M 0,551.678 H 544.966 V 0 H 0 Z"
         id="path3979" />
    </clipPath>
  </defs>
  <g
     id="g3973"
     transform="matrix(1.3333333,0,0,-1.3333333,-8.3837795,731.74878)">
    <g
       id="g3975">
      <g
         id="g3977"
         clip-path="url(#clipPath3981)">
        <g
           id="g3983"
           transform="translate(236.3217,7.8726)">
          <path
             d="m 0,0 c -6.469,0 -13.111,0.682 -19.738,2.026 -22.129,4.477 -42.781,16.239 -55.239,31.459 l -131.032,116.232 -0.648,0.751 c -17.464,20.449 -25.208,44.683 -23.013,72.042 l 0.069,0.859 39.91,197.08 0.524,1.275 c 12.448,30.224 35.234,50.06 69.669,60.626 l 156.917,52.037 0.815,0.345 c 8.486,3.954 19.363,6.207 30.739,6.207 6.162,0 12.482,-0.642 18.789,-1.927 20.32,-4.111 39.42,-14.499 53.86,-29.245 L 269.793,396.263 c 23.167,-23.167 32.26,-52.986 27.664,-89.219 l -0.193,-1.127 -33.55,-160.5 -0.044,-0.405 C 258.965,104.302 236.505,75.007 198.794,60.834 L 33.1,6.948 32.206,6.553 C 23.395,2.382 11.979,0 0,0"
             style="fill:#666666;fill-opacity:1;fill-rule:nonzero;stroke:none"
             id="path3985" />
        </g>
        <g
           id="g3987"
           transform="translate(244.3226,423.4683)">
          <path
             d="m 0,0 h 21.405 63.181 4.406 l 96.196,-158.813 26.985,135.992 -97.083,85.97 C 103.691,74.936 88.605,83.162 72.507,86.424 58.737,89.21 45.373,88.064 34.871,83.194 L 33.404,82.612 -109.651,35.173 c -23.493,-7.207 -39.553,-19.208 -49.946,-37.219 l 41.014,-186.622 z"
             style="fill:#b1ff9b;fill-opacity:1;fill-rule:nonzero;stroke:none"
             id="path3989" />
        </g>
        <g
           id="g3991"
           transform="translate(320.0473,292.437)">
          <path
             d="m 0,0 -31.932,-159.221 h -80.436 l 28.466,142.337 -89.264,-142.337 h -35.328 l 69.207,-61.383 0.695,-0.846 c 9.483,-11.597 25.457,-20.602 42.749,-24.104 14.634,-2.963 28.786,-1.736 39.843,3.468 l 1.606,0.634 150.201,48.833 c 18.441,6.932 31.97,18.131 40.542,33.398 H 95.782 Z"
             style="fill:#b1ff9b;fill-opacity:1;fill-rule:nonzero;stroke:none"
             id="path3993" />
        </g>
      </g>
    </g>
  </g>
</svg>
