<?xml version="1.0" encoding="UTF-8" standalone="no"?>
<!-- Created with Inkscape (http://www.inkscape.org/) -->

<svg
   version="1.1"
   id="svg4556"
   width="981.65558"
   height="283.77576"
   viewBox="0 0 981.65558 283.77575"
   sodipodi:docname="VENENEWS.ai"
   inkscape:export-filename="..\..\Users\YehiiBhii\Desktop\logo2.svg"
   inkscape:export-xdpi="96"
   inkscape:export-ydpi="96"
   xmlns:inkscape="http://www.inkscape.org/namespaces/inkscape"
   xmlns:sodipodi="http://sodipodi.sourceforge.net/DTD/sodipodi-0.dtd"
   xmlns="http://www.w3.org/2000/svg"
   xmlns:svg="http://www.w3.org/2000/svg">
  <defs
     id="defs4560">
    <clipPath
       clipPathUnits="userSpaceOnUse"
       id="clipPath4572">
      <path
         d="M 0,225.503 H 749.664 V 0 H 0 Z"
         id="path4570" />
    </clipPath>
  </defs>
  <sodipodi:namedview
     id="namedview4558"
     pagecolor="#505050"
     bordercolor="#eeeeee"
     borderopacity="1"
     inkscape:showpageshadow="0"
     inkscape:pageopacity="0"
     inkscape:pagecheckerboard="0"
     inkscape:deskcolor="#505050"
     showgrid="false" />
  <g
     id="g4564"
     inkscape:groupmode="layer"
     inkscape:label="Page 1"
     transform="matrix(1.3333333,0,0,-1.3333333,-8.0536289,294.43866)">
    <g
       id="g4566">
      <g
         id="g4568"
         clip-path="url(#clipPath4572)">
        <g
           id="g4574"
           transform="translate(716.4227,7.9972)">
          <path
             d="m 0,0 h -695.032 c -9.606,0 -16.851,8.726 -15.084,18.168 l 10.509,56.162 c 1.358,7.261 7.697,12.524 15.084,12.524 H 10.509 c 9.606,0 16.85,-8.726 15.084,-18.168 L 15.084,12.523 C 13.726,5.263 7.387,0 0,0"
             style="fill:#666666;fill-opacity:1;fill-rule:nonzero;stroke:none"
             id="path4576" />
        </g>
        <g
           id="g4578"
           transform="translate(201.6869,50.5978)">
          <path
             d="m 0,0 h -8.841 l 3.147,15.361 h 7.793 c 5.095,0 8.245,-2.02 8.245,-6.442 C 10.344,3.149 6.521,0 0,0 m -49.181,-4.272 10.041,17.013 3.521,-17.013 z m -38.923,-9.667 1.871,9.591 h 22.305 l -6.154,-9.591 z m -16.437,4.272 c 1.016,0.35 1.967,0.768 2.888,1.215 l -0.933,-4.665 z M -115.334,0 h -8.841 l 3.146,15.361 h 7.794 c 5.095,0 8.244,-2.02 8.244,-6.442 0,-5.77 -3.822,-8.919 -10.343,-8.919 M 25.331,10.341 c 0,10.496 -7.718,16.715 -21.134,16.715 h -22.406 l -4.967,-24.841 -5.997,24.841 h -14.613 l -18.591,-28.985 1.699,8.677 h -23.307 l 1.725,8.844 h 26.453 l 2.324,11.464 H -94.55 l -0.902,-4.509 c -3.609,2.917 -8.916,4.509 -15.685,4.509 h -22.406 l -7.622,-38.114 c -2.931,-2.126 -6.132,-3.106 -9.538,-3.106 -8.018,0 -12.814,4.722 -12.814,11.768 0,10.341 6.743,18.212 16.936,18.212 2.664,0 4.961,-0.561 6.9,-1.633 l 5.037,12.14 c -3.231,1.17 -6.942,1.781 -10.963,1.781 -19.485,0 -32.9,-13.266 -32.9,-31.473 0,-13.715 10.269,-23.082 26.379,-23.082 3.245,0 6.277,0.341 9.121,1.048 h 13.811 l 2.772,13.939 h 7.494 l 7.793,-13.939 h 6.094 9.42 18.188 14.434 1.228 l 6.071,10.191 h 22.331 l 2.1,-10.191 h 2.571 12.191 2.647 l 2.773,13.939 h 7.493 l 7.793,-13.939 h 15.514 l -8.918,15.736 c 9.143,3.149 14.538,10.341 14.538,20.008"
             style="fill:#b1ff9b;fill-opacity:1;fill-rule:nonzero;stroke:none"
             id="path4580" />
        </g>
        <g
           id="g4582"
           transform="translate(378.0443,46.3253)">
          <path
             d="M 0,0 10.042,17.014 13.563,0 Z m -21.458,-5.395 c 1.74,0.6 3.297,1.389 4.755,2.271 l -3.208,-5.001 z m -19.634,9.667 3.147,15.362 h 7.793 c 5.096,0 8.245,-2.021 8.245,-6.443 0,-5.769 -3.823,-8.919 -10.343,-8.919 z M -81.432,0 -71.39,17.014 -67.869,0 Z m -32.019,4.272 3.072,15.362 h 7.793 c 5.17,0 8.245,-2.021 8.245,-6.443 0,-5.769 -3.748,-8.919 -10.269,-8.919 z M 20.008,31.328 H 5.395 L -7.118,11.818 c 0.105,0.912 0.199,1.832 0.199,2.795 0,10.496 -7.719,16.715 -21.134,16.715 H -50.459 L -55.428,6.49 -61.424,31.328 h -14.613 l -5.459,-8.512 c -3.124,5.435 -9.635,8.512 -19.141,8.512 h -22.182 l -10.491,-52.459 h 14.838 l 2.698,13.715 h 10.49 c 1.609,0 3.117,0.148 4.603,0.322 l -9.004,-14.037 h 15.661 l 6.071,10.192 h 22.332 l 2.099,-10.192 h 2.569 12.194 2.647 l 2.772,13.94 h 7.494 l 7.7,-13.774 -0.107,-0.166 h 0.2 15.461 0.053 l -0.026,0.045 6.044,10.147 h 22.332 l 2.099,-10.192 h 14.762 z"
             style="fill:#b1ff9b;fill-opacity:1;fill-rule:nonzero;stroke:none"
             id="path4584" />
        </g>
        <g
           id="g4586"
           transform="translate(694.3944,50.5978)">
          <path
             d="m 0,0 h -8.842 l 3.148,15.361 h 7.793 c 5.095,0 8.245,-2.02 8.245,-6.442 C 10.344,3.149 6.521,0 0,0 m -49.182,-4.272 10.042,17.013 3.521,-17.013 z m -21.46,-5.395 c 1.742,0.6 3.3,1.39 4.758,2.272 l -3.21,-5.004 z M -90.275,0 l 3.146,15.361 h 7.793 c 5.096,0 8.245,-2.02 8.245,-6.442 C -71.091,3.149 -74.914,0 -81.435,0 Z m -42.301,-13.939 1.871,9.591 h 23.382 l 2.174,11.096 h -23.308 l 1.725,8.844 h 24.795 l -5.905,-29.531 z m -77.839,0 1.871,9.591 h 23.383 l 2.173,11.096 h -23.307 l 1.724,8.844 h 24.796 l -5.908,-29.531 z m -23.041,15.89 -2.997,-14.838 c -2.248,-0.903 -4.571,-1.277 -6.97,-1.277 -8.616,0 -13.413,4.722 -13.413,11.768 0,10.491 6.896,18.212 17.686,18.212 5.394,0 9.442,-1.503 12.888,-5.775 l 7.121,5.617 -2.741,-13.707 z m 258.787,8.39 c 0,10.496 -7.719,16.715 -21.134,16.715 H -18.209 L -23.177,2.215 -29.174,27.056 H -43.786 L -56.303,7.542 c 0.106,0.914 0.199,1.834 0.199,2.799 0,10.496 -7.718,16.715 -21.133,16.715 h -20.718 -1.689 -28.002 -11.376 -3.163 l -5.697,-28.703 -17.386,28.703 h -10.526 -1.688 -39.378 l -1.188,-5.933 c -4.753,4.545 -11.56,6.981 -20.429,6.981 -19.933,0 -33.349,-13.266 -33.349,-31.473 0,-13.715 10.344,-23.082 26.38,-23.082 7.149,0 13.732,1.902 18.925,5.216 l -0.833,-4.168 h 39.378 2.664 11.877 l 5.77,28.777 17.311,-28.777 h 0.841 11.373 28.005 2.662 12.176 l 2.773,13.939 h 7.494 l 7.701,-13.775 -0.106,-0.164 h 0.198 15.464 0.049 l -0.024,0.043 6.046,10.148 h 22.331 l 2.099,-10.191 h 2.572 12.191 2.647 l 2.772,13.939 h 7.494 l 7.793,-13.939 h 15.514 l -8.918,15.736 c 9.143,3.149 14.538,10.341 14.538,20.008"
             style="fill:#b1ff9b;fill-opacity:1;fill-rule:nonzero;stroke:none"
             id="path4588" />
        </g>
        <g
           id="g4590"
           transform="translate(129.1508,127.0348)">
          <path
             d="m 0,0 4.182,21.401 h 35.914 l 4.847,24.743 H 9.196 l 3.846,19.73 H 54.947 L 41.772,0 Z m 232.513,65.874 5.184,25.583 h -66.449 -25.175 -7.26 L 126.106,27.417 87.317,91.457 H 77.246 60.063 16.516 -14.378 -17.592 L -65.409,15.379 -82.128,91.457 h -33.942 l 26.585,-117.04 h 32.601 l 28.041,44.713 -8.942,-44.713 h 74.441 19.355 13.08 l 12.876,64.204 38.623,-64.204 h 2.076 25.175 68.621 L 221.812,0 h -61.358 l 4.179,21.401 h 30.496 l 4.849,24.743 h -30.331 l 3.847,19.73 z"
             style="fill:#e7e7e7;fill-opacity:1;fill-rule:nonzero;stroke:none"
             id="path4592" />
        </g>
        <g
           id="g4594"
           transform="translate(678.5585,124.862)">
          <path
             d="m 0,0 c -12.256,0 -24.774,3.401 -35.923,9.756 l 11.4,21.742 C -7.816,20.42 20.063,21.373 20.063,10.362 20.063,4.007 12.704,0 0,0 m -3.68,58.853 c 0,6.35 7.36,11.367 21.069,11.367 11.535,0 22.907,-3.009 32.101,-8.861 L 61.528,85.938 C 50.997,92.456 35.945,95.967 19.397,95.967 11.827,95.967 4.924,95.131 -1.309,93.63 H -24.721 L -64.51,17.885 -72.873,93.63 h -30.595 l -39.461,-74.74 -9.024,74.74 h -7.07 -25.535 -38.568 -27.519 -4.916 l -12.707,-64.04 -38.789,64.04 h -27.254 l -23.407,-117.04 h 32.437 l 12.874,64.203 38.422,-63.873 -0.067,-0.33 h 0.265 27.254 66.277 l 5.351,25.583 h -61.36 l 4.18,21.401 h 41.328 l 4.848,24.742 h -41.161 l 3.845,19.731 h 41.81 l 11.232,-91.457 h 35.618 l 37.283,70.558 8.527,-70.558 h 35.443 l 4.375,8.345 c 10.799,-6.227 27.481,-10.687 45.759,-10.687 34.275,0 56.348,16.553 56.348,41.634 0,36.114 -57.014,26.92 -56.85,42.971"
             style="fill:#b1ff9b;fill-opacity:1;fill-rule:nonzero;stroke:none"
             id="path4596" />
        </g>
      </g>
    </g>
  </g>
</svg>
