<?xml version="1.0" encoding="UTF-8" standalone="no"?>
<!DOCTYPE svg PUBLIC "-//W3C//DTD SVG 1.1//EN" "http://www.w3.org/Graphics/SVG/1.1/DTD/svg11.dtd">
<svg width="100%" height="100%" viewBox="0 0 2686 803" version="1.1" xmlns="http://www.w3.org/2000/svg" xmlns:xlink="http://www.w3.org/1999/xlink" xml:space="preserve" xmlns:serif="http://www.serif.com/" style="fill-rule:evenodd;clip-rule:evenodd;stroke-linejoin:round;stroke-miterlimit:2;">
    <g id="sobrenegrologonew.svg" transform="matrix(0.994603,0,0,0.994603,1343,401.3)">
        <g transform="matrix(1,0,0,1,-1754,-1240.5)">
            <g transform="matrix(1,0,0,1,200.899,-276.327)">
                <g transform="matrix(2.90812,0,0,2.90812,-168.78,1107.24)">
                    <g transform="matrix(-1.95626,0,0,1.95626,663.836,104.677)">
                        <path d="M201.812,80.538L204.338,80.538C244.879,80.538 272.753,57.073 272.753,18.758C272.753,-3.243 263.562,-20.347 248.06,-30.924L201.812,80.538Z" style="fill:rgb(239,239,239);"/>
                    </g>
                    <g transform="matrix(-1.95626,0,0,1.95626,663.836,104.677)">
                        <path d="M144.589,45.303L144.589,80.538L159.208,80.538L144.589,45.303Z" style="fill:rgb(239,239,239);"/>
                    </g>
                    <g transform="matrix(-1.95626,0,0,1.95626,663.836,104.677)">
                        <path d="M208.259,-42.51C208.259,-42.51 207.81,-43.021 204.338,-43.021L148.898,-42.51L178.93,30.695L208.259,-42.51Z" style="fill:rgb(239,239,239);"/>
                    </g>
                </g>
                <g transform="matrix(1,0,0,1,-183.752,384.596)">
                    <g>
                        <g transform="matrix(2.75883,0,0,2.75883,434.195,897.223)">
                            <path d="M365.684,80.538L365.921,-43.021L325.74,-43.021L272.741,80.538L365.684,80.538Z" style="fill:rgb(157,255,0);fill-rule:nonzero;"/>
                        </g>
                        <g transform="matrix(2.75883,0,0,2.75883,419.781,770.36)">
                            <path d="M318.261,225.679L318.261,209.415L361.827,209.415L361.827,179.424L318.261,179.424L318.261,164.926L370.642,164.926L370.642,133.523L278.095,133.523L278.095,257.082L371.182,257.082L371.182,225.679L318.261,225.679Z" style="fill:rgb(157,255,0);fill-rule:nonzero;"/>
                        </g>
                    </g>
                    <g transform="matrix(2.75883,0,0,2.66068,-22.3637,791.436)">
                        <path d="M860.602,259.595C896.343,256.487 921.771,230.408 921.771,195.302C921.771,160.196 896.343,134.118 860.602,131.009L860.602,259.595Z" style="fill:rgb(157,255,0);"/>
                    </g>
                </g>
                <g transform="matrix(1,0,0,1,-176.752,384.596)">
                    <path d="M2154.4,909.9L2154.4,1119.41L2061.74,1119.41L1934.57,964.558L1934.57,1119.41L1824.71,1119.41L1824.71,778.535L1917.38,778.535L2044.55,933.392L2044.55,778.535L2196.57,778.535L2264.88,896.382L2333.67,778.535L2442.63,778.535L2316.46,995.723L2316.46,1119.41L2203.74,1119.41L2203.74,994.262L2154.4,909.9ZM1794.23,1482.16L1701.93,1482.16L1574.76,1254.37L1574.76,1482.16L1464.9,1482.16L1464.9,778.535L1557.56,778.535L1684.73,933.392L1684.73,778.535L1794.59,778.535L1794.59,1142.01L1962.14,1142.01L1962.14,1228.64L1801.09,1228.64L1801.09,1268.64L1942.54,1268.64L1942.54,1351.38L1801.09,1351.38L1801.09,1396.25L1968.35,1396.25L1968.35,1482.89L1795.03,1482.33L1794.23,1482.16ZM1684.73,1098.48L1574.76,964.558L1574.76,1060.71L1684.73,1214.52L1684.73,1098.48Z" style="fill:rgb(239,239,239);"/>
                </g>
                <g transform="matrix(2.75883,0,0,2.75883,17.488,1154.96)">
                    <path d="M730.208,133.523L730.208,189.654L684.112,133.523L650.525,133.523L650.525,257.082L690.345,257.082L690.345,200.951L736.44,257.082L770.028,257.082L770.028,133.523L730.208,133.523Z" style="fill:rgb(235,235,235);fill-rule:nonzero;"/>
                </g>
                <g transform="matrix(1,0,0,1,-183.752,384.596)">
                    <path d="M2628.83,730.567L2879.13,730.567C2989.88,730.567 3079.8,820.48 3079.8,931.228L3079.8,1332.55C3079.8,1443.3 2989.88,1533.21 2879.13,1533.21L2628.83,1533.21L2628.83,730.567ZM2916.78,1296.59L2916.78,1163.13L2872.56,1163.13L2872.56,1239.55L2747.53,1239.55L2747.53,1296.59L2916.78,1296.59ZM2828.29,1348.12C2820.56,1332.65 2807.5,1324.67 2791.76,1324.67C2766.14,1324.67 2747.53,1346.43 2747.53,1393.1L2747.53,1483.53L2916.78,1483.53L2916.78,1388.26C2916.78,1341.59 2899.63,1316.7 2870.13,1316.7C2850.04,1316.7 2835.54,1328.3 2828.29,1348.12ZM2787.4,1400.84C2787.4,1388.02 2791.76,1382.21 2799.99,1382.21C2808.22,1382.21 2812.58,1388.02 2812.58,1400.84L2812.58,1427.46L2787.4,1427.46L2787.4,1400.84ZM2876.91,1393.1L2876.91,1427.46L2850.28,1427.46L2850.28,1393.1C2850.28,1380.51 2854.88,1374.22 2863.6,1374.22C2872.31,1374.22 2876.91,1380.51 2876.91,1393.1ZM2920.65,1061.06C2920.65,1005.91 2883.44,965.548 2832.16,965.548C2780.88,965.548 2743.66,1005.91 2743.66,1061.06C2743.66,1116.2 2780.88,1156.57 2832.16,1156.57C2883.44,1156.57 2920.65,1116.2 2920.65,1061.06ZM2874.49,1061.06C2874.49,1082.11 2858.53,1099.04 2832.16,1099.04C2805.79,1099.04 2789.82,1082.11 2789.82,1061.06C2789.82,1040.01 2805.79,1023.08 2832.16,1023.08C2858.53,1023.08 2874.49,1040.01 2874.49,1061.06ZM2870.38,832.749C2873.28,839.766 2874.49,846.541 2874.49,853.557C2874.49,877.995 2857.56,893.964 2832.16,893.964C2806.03,893.964 2789.82,877.995 2789.82,852.832C2789.82,837.83 2796.11,825.498 2808.45,814.864L2776.29,778.366C2755.26,795.529 2743.66,822.356 2743.66,855.735C2743.66,911.609 2780.15,951.491 2832.16,951.491C2884.16,951.491 2920.65,911.609 2920.65,856.945C2920.65,832.024 2913.16,803.746 2899.14,783.202L2827.56,783.202L2827.56,832.749L2870.38,832.749Z" style="fill:rgb(235,235,235);"/>
                </g>
            </g>
        </g>
    </g>
</svg>
