<?xml version="1.0" standalone="no"?>
<!DOCTYPE svg PUBLIC "-//W3C//DTD SVG 20010904//EN"
 "http://www.w3.org/TR/2001/REC-SVG-20010904/DTD/svg10.dtd">
<svg version="1.0" xmlns="http://www.w3.org/2000/svg"
 width="982.000000pt" height="982.000000pt" viewBox="0 0 982.000000 982.000000"
 preserveAspectRatio="xMidYMid meet">
<metadata>
Created by potrace 1.14, written by Peter Selinger 2001-2017
</metadata>
<g transform="translate(0.000000,982.000000) scale(0.100000,-0.100000)"
fill="#000000" stroke="none">
<path d="M9030 6313 c-41 -7 -146 -14 -233 -15 l-159 -3 -55 -105 c-30 -58
-87 -166 -125 -240 -39 -74 -85 -162 -103 -195 -18 -33 -69 -130 -114 -217
-91 -174 -130 -245 -132 -238 -3 9 -6 43 -14 125 -4 44 -9 87 -10 95 -2 8 -6
44 -9 80 -4 36 -9 76 -11 90 -2 14 -7 59 -11 100 -3 41 -8 84 -10 95 -2 10 -6
51 -10 90 -3 38 -8 78 -10 89 -2 10 -6 51 -10 90 -4 39 -8 78 -10 86 -1 8 -3
25 -3 37 -1 21 -2 21 -207 20 l-206 -2 -49 -90 c-27 -49 -53 -100 -58 -112 -9
-19 -135 -260 -231 -438 -20 -38 -70 -133 -111 -210 l-73 -140 -7 40 c-4 22
-10 69 -13 105 -4 36 -9 74 -11 85 -3 11 -7 45 -10 75 -7 72 -14 138 -20 175
-2 17 -12 93 -20 170 -9 77 -18 151 -20 165 -6 40 -18 143 -19 162 0 15 -51
17 -693 16 -381 0 -693 -3 -694 -7 -1 -9 -1 -8 -79 -401 -39 -195 -73 -373
-76 -395 -4 -22 -8 -42 -9 -43 -2 -2 -15 13 -28 35 -44 68 -303 498 -310 513
-4 8 -46 78 -95 155 l-87 140 -691 1 -691 2 -37 -187 c-21 -102 -39 -193 -41
-202 -2 -9 -6 -32 -9 -50 -3 -19 -12 -67 -20 -106 -9 -40 -18 -87 -21 -105 -4
-18 -10 -52 -16 -76 -5 -23 -12 -59 -15 -80 -3 -20 -7 -38 -9 -40 -3 -3 -82
125 -246 396 -41 68 -83 139 -94 158 -11 19 -55 92 -99 163 l-78 129 -702 -1
-701 -2 -117 -185 c-64 -102 -139 -220 -165 -263 -211 -342 -349 -554 -354
-544 -4 7 -17 57 -29 112 -12 55 -30 141 -41 190 -23 103 -26 118 -35 160 -3
17 -12 57 -20 90 -24 103 -87 389 -91 417 l-5 27 -224 -1 c-200 0 -224 -2
-224 -17 0 -14 5 -36 25 -121 9 -36 98 -428 105 -460 4 -19 27 -118 50 -220
23 -102 48 -212 55 -245 67 -296 106 -465 111 -479 7 -19 -14 -17 228 -19 137
-2 203 2 211 9 6 6 51 75 101 153 49 78 97 154 106 169 10 15 24 39 33 55 32
55 125 197 131 197 3 0 3 -4 0 -8 -4 -7 -37 -163 -51 -242 -2 -14 -18 -92 -35
-174 -17 -82 -28 -151 -25 -154 2 -3 322 -6 710 -6 l706 -1 9 35 c5 19 11 49
14 65 3 17 8 41 11 55 2 14 7 39 10 55 3 17 8 39 10 50 3 11 30 146 60 300 31
154 57 284 58 289 2 7 70 -99 137 -215 8 -15 98 -163 199 -330 l183 -304 689
0 689 0 15 70 c12 58 34 167 89 450 16 79 68 330 70 332 1 1 116 -188 255
-420 140 -232 256 -424 257 -426 3 -3 1198 -5 1240 -2 10 1 24 53 41 146 2 11
10 53 18 93 9 40 16 79 18 85 1 9 -98 13 -402 15 -223 1 -406 4 -408 6 -2 2 3
34 11 72 8 38 17 85 20 104 4 19 10 51 14 70 l8 35 274 0 275 0 27 135 c15 74
29 149 32 165 l5 30 -274 -1 c-272 0 -274 0 -269 20 2 12 13 67 24 124 10 56
21 106 24 111 6 9 556 11 557 2 0 -3 2 -15 3 -26 2 -11 6 -51 10 -90 4 -38 9
-77 11 -85 2 -8 7 -40 10 -70 3 -30 15 -127 26 -215 10 -88 22 -180 25 -205 3
-25 7 -58 9 -75 2 -16 7 -52 10 -80 3 -27 8 -63 10 -80 2 -16 7 -50 10 -75 5
-46 12 -107 20 -169 2 -19 7 -36 10 -39 9 -9 466 -6 474 4 4 5 42 74 83 154
83 160 153 293 203 385 17 33 67 128 110 210 86 166 101 188 102 153 0 -13 3
-43 7 -68 6 -46 42 -336 52 -425 3 -27 7 -61 9 -75 2 -14 6 -52 10 -85 3 -33
8 -69 9 -80 2 -11 7 -53 11 -93 4 -40 12 -75 18 -79 5 -3 113 -6 238 -7 l228
-1 29 56 28 57 51 -24 c57 -27 175 -70 219 -79 211 -44 423 -49 589 -14 301
65 489 251 500 495 6 135 -25 217 -112 293 -76 67 -159 102 -412 171 -131 36
-180 58 -211 97 -40 51 -10 122 70 163 47 24 89 32 185 33 139 2 229 -17 353
-74 l83 -38 79 161 c44 88 80 162 80 164 0 8 -140 68 -199 85 -161 47 -399 61
-561 32z m-6660 -367 c0 -6 -23 -126 -51 -266 -28 -140 -52 -264 -55 -275 -26
-134 -65 -319 -67 -321 -3 -3 -397 -6 -508 -5 l-47 1 7 33 c4 17 8 35 9 40 1
4 4 22 7 40 12 62 14 72 20 119 6 36 12 47 29 50 11 2 119 3 239 3 120 -1 220
1 222 5 2 4 7 20 9 36 3 16 8 40 11 54 3 14 8 41 11 60 3 19 8 38 9 41 4 5 14
70 18 113 2 19 -6 20 -230 20 -211 0 -233 1 -233 17 0 15 37 212 45 235 2 7
89 11 279 11 193 0 276 -3 276 -11z m2066 -20 c-5 -28 -17 -90 -31 -156 -11
-55 -25 -126 -29 -153 -3 -15 -7 -35 -10 -45 -3 -9 -7 -28 -10 -42 -10 -63
-88 -445 -90 -448 -2 -1 -111 -1 -242 0 l-240 3 28 140 c15 77 27 140 28 140
0 0 91 0 202 0 l202 0 32 160 c18 88 31 162 29 165 -2 3 -91 5 -199 4 -153 -1
-196 2 -196 12 0 14 39 223 44 240 3 7 82 11 245 11 l242 0 -5 -31z m4424
-549 c47 -14 130 -39 186 -56 160 -48 210 -95 182 -169 -11 -29 -26 -43 -73
-67 -56 -28 -65 -30 -179 -30 -67 0 -139 4 -161 8 -100 19 -193 51 -275 92
l-49 25 45 87 c25 49 59 113 76 144 l29 56 67 -32 c37 -18 105 -44 152 -58z"/>
<path d="M277 4636 c-38 -14 -62 -30 -85 -56 -20 -22 -50 -91 -55 -125 -3 -16
-10 -57 -16 -90 -6 -33 -13 -76 -16 -95 -3 -19 -10 -53 -15 -75 -5 -22 -12
-56 -15 -75 -3 -19 -21 -119 -40 -221 -40 -213 -41 -230 -16 -285 22 -48 52
-78 103 -105 36 -19 128 -19 4715 -19 4537 0 4679 1 4718 19 48 22 79 51 100
91 13 25 40 146 60 270 3 19 8 42 10 50 2 8 7 31 10 50 3 19 10 55 15 80 5 25
21 109 35 187 14 79 28 153 31 165 3 13 2 46 -1 74 -7 63 -57 127 -119 155
-40 18 -195 19 -4711 18 -3880 0 -4676 -2 -4708 -13z"/>
</g>
</svg>
